<svg width="122" height="87" viewBox="0 0 122 87" fill="none" xmlns="http://www.w3.org/2000/svg">
  <g filter="url(#filter0_f_304_678)">
  <path d="M42.1694 43.9167L60.6486 23.705L79.1279 43.9167L80.973 45.9347L82.818 43.9167L98.7973 26.4393V64.5H22.5V26.4393L38.4793 43.9167L40.3243 45.9347L42.1694 43.9167Z" stroke="#F19A16" stroke-width="5"/>
  </g>
  <g filter="url(#filter1_f_304_678)">
  <path d="M46.8451 46.1869L61 30.705L75.1549 46.1869L77 48.205L78.8451 46.1869L90.5 33.4393V61.5H31.5V33.4393L43.1549 46.1869L45 48.205L46.8451 46.1869Z" stroke="#E8A034" stroke-width="5"/>
  </g>
  <path d="M46.8451 46.1869L61 30.705L75.1549 46.1869L77 48.205L78.8451 46.1869L90.5 33.4393V61.5H31.5V33.4393L43.1549 46.1869L45 48.205L46.8451 46.1869Z" stroke="#FEFFBB" stroke-width="5"/>
  <defs>
  <filter id="filter0_f_304_678" x="0" y="0" width="121.297" height="87" filterUnits="userSpaceOnUse" color-interpolation-filters="sRGB">
  <feFlood flood-opacity="0" result="BackgroundImageFix"/>
  <feBlend mode="normal" in="SourceGraphic" in2="BackgroundImageFix" result="shape"/>
  <feGaussianBlur stdDeviation="10" result="effect1_foregroundBlur_304_678"/>
  </filter>
  <filter id="filter1_f_304_678" x="19" y="17" width="84" height="57" filterUnits="userSpaceOnUse" color-interpolation-filters="sRGB">
  <feFlood flood-opacity="0" result="BackgroundImageFix"/>
  <feBlend mode="normal" in="SourceGraphic" in2="BackgroundImageFix" result="shape"/>
  <feGaussianBlur stdDeviation="5" result="effect1_foregroundBlur_304_678"/>
  </filter>
  </defs>
</svg>
