<svg xmlns="http://www.w3.org/2000/svg" width="148" height="153" viewBox="0 0 148 153" fill="none">
<g filter="url(#filter0_f_304_618)">
<path d="M32.5144 23.7207C34.4053 21.8584 37.4408 21.8584 39.3318 23.7207L41.4615 25.8182L115.486 98.7207C117.418 100.624 117.418 103.74 115.486 105.643C113.595 107.505 110.559 107.505 108.668 105.643L34.25 32.3523L32.5144 30.643C30.5822 28.74 30.5822 25.6236 32.5144 23.7207Z" fill="#791610"/>
<path d="M115.486 22.357C117.418 24.26 117.418 27.3764 115.486 29.2793L39.3318 104.279C37.4408 106.142 34.4053 106.142 32.5144 104.279C30.5822 102.376 30.5822 99.26 32.5144 97.357L108.668 22.357C110.559 20.4948 113.595 20.4948 115.486 22.357Z" fill="#791610"/>
</g>
<g filter="url(#filter1_f_304_618)">
<path d="M37.1239 28.1962C38.8047 26.5408 41.503 26.5408 43.1838 28.1962L45.0769 30.0606L110.876 94.8628C112.594 96.5543 112.594 99.3245 110.876 101.016C109.195 102.671 106.497 102.671 104.816 101.016L38.6667 35.8687L37.1239 34.3493C35.4064 32.6578 35.4064 29.8877 37.1239 28.1962Z" fill="#A66C4F"/>
<path d="M110.876 26.984C112.594 28.6755 112.594 31.4457 110.876 33.1372L43.1838 99.8038C41.503 101.459 38.8047 101.459 37.1239 99.8038C35.4064 98.1123 35.4064 95.3422 37.1239 93.6507L104.816 26.984C106.497 25.3287 109.195 25.3287 110.876 26.984Z" fill="#A66C4F"/>
</g>
<path d="M37.1239 28.1962C38.8047 26.5408 41.503 26.5408 43.1838 28.1962L45.0769 30.0606L110.876 94.8628C112.594 96.5543 112.594 99.3245 110.876 101.016C109.195 102.671 106.497 102.671 104.816 101.016L38.6667 35.8687L37.1239 34.3493C35.4064 32.6578 35.4064 29.8877 37.1239 28.1962Z" fill="#99877E"/>
<path d="M110.876 26.984C112.594 28.6755 112.594 31.4457 110.876 33.1372L43.1838 99.8038C41.503 101.459 38.8047 101.459 37.1239 99.8038C35.4064 98.1123 35.4064 95.3422 37.1239 93.6507L104.816 26.984C106.497 25.3287 109.195 25.3287 110.876 26.984Z" fill="#99877E"/>
<g filter="url(#filter2_f_304_618)">
<rect x="20" y="129" width="108" height="4" rx="2" fill="#791610"/>
</g>
<g filter="url(#filter3_f_304_618)">
<rect x="20" y="129" width="108" height="4" rx="2" fill="#A66C4F"/>
</g>
<rect x="20" y="129" width="108" height="4" rx="2" fill="#99877E"/>
<defs>
<filter id="filter0_f_304_618" x="11.0652" y="0.960449" width="125.87" height="126.079" filterUnits="userSpaceOnUse" color-interpolation-filters="sRGB">
<feFlood flood-opacity="0" result="BackgroundImageFix"/>
<feBlend mode="normal" in="SourceGraphic" in2="BackgroundImageFix" result="shape"/>
<feGaussianBlur stdDeviation="10" result="effect1_foregroundBlur_304_618"/>
</filter>
<filter id="filter1_f_304_618" x="25.8358" y="15.7424" width="96.3285" height="96.5151" filterUnits="userSpaceOnUse" color-interpolation-filters="sRGB">
<feFlood flood-opacity="0" result="BackgroundImageFix"/>
<feBlend mode="normal" in="SourceGraphic" in2="BackgroundImageFix" result="shape"/>
<feGaussianBlur stdDeviation="5" result="effect1_foregroundBlur_304_618"/>
</filter>
<filter id="filter2_f_304_618" x="0" y="109" width="148" height="44" filterUnits="userSpaceOnUse" color-interpolation-filters="sRGB">
<feFlood flood-opacity="0" result="BackgroundImageFix"/>
<feBlend mode="normal" in="SourceGraphic" in2="BackgroundImageFix" result="shape"/>
<feGaussianBlur stdDeviation="10" result="effect1_foregroundBlur_304_618"/>
</filter>
<filter id="filter3_f_304_618" x="10" y="119" width="128" height="24" filterUnits="userSpaceOnUse" color-interpolation-filters="sRGB">
<feFlood flood-opacity="0" result="BackgroundImageFix"/>
<feBlend mode="normal" in="SourceGraphic" in2="BackgroundImageFix" result="shape"/>
<feGaussianBlur stdDeviation="5" result="effect1_foregroundBlur_304_618"/>
</filter>
</defs>
</svg>